<svg width="496" height="75" viewBox="0 0 496 75" fill="none" xmlns="http://www.w3.org/2000/svg">
<path d="M0.958118 4.98611H62.6865V17.2611H14.9552V35.3204H55.4892V46.8448H14.9552V74H0.958118V4.98611ZM71.4291 47.9487C71.4291 44.2103 72.1797 40.7073 73.681 37.4399C75.2117 34.1724 77.3753 31.3171 80.1718 28.8738C82.9977 26.4306 86.3976 24.5025 90.3715 23.0896C94.3749 21.6766 98.8639 20.9701 103.839 20.9701C108.813 20.9701 113.288 21.6766 117.262 23.0896C121.265 24.5025 124.665 26.4306 127.462 28.8738C130.287 31.3171 132.451 34.1724 133.952 37.4399C135.483 40.7073 136.248 44.2103 136.248 47.9487C136.248 51.6871 135.483 55.1901 133.952 58.4575C132.451 61.725 130.287 64.5803 127.462 67.0235C124.665 69.4668 121.265 71.3949 117.262 72.8078C113.288 74.2208 108.813 74.9272 103.839 74.9272C98.8639 74.9272 94.3749 74.2208 90.3715 72.8078C86.3976 71.3949 82.9977 69.4668 80.1718 67.0235C77.3753 64.5803 75.2117 61.725 73.681 58.4575C72.1797 55.1901 71.4291 51.6871 71.4291 47.9487ZM85.1612 47.9487C85.1612 50.0387 85.5734 52.0256 86.3976 53.9096C87.2512 55.7641 88.4728 57.4125 90.0624 58.8549C91.6814 60.2679 93.639 61.4012 95.935 62.2548C98.2605 63.0791 100.895 63.4912 103.839 63.4912C106.782 63.4912 109.402 63.0791 111.698 62.2548C114.024 61.4012 115.981 60.2679 117.571 58.8549C119.19 57.4125 120.411 55.7641 121.236 53.9096C122.089 52.0256 122.516 50.0387 122.516 47.9487C122.516 45.8587 122.089 43.8717 121.236 41.9878C120.411 40.1039 119.19 38.4554 117.571 37.0425C115.981 35.6001 114.024 34.4668 111.698 33.6425C109.402 32.7889 106.782 32.3621 103.839 32.3621C100.895 32.3621 98.2605 32.7889 95.935 33.6425C93.639 34.4668 91.6814 35.6001 90.0624 37.0425C88.4728 38.4554 87.2512 40.1039 86.3976 41.9878C85.5734 43.8717 85.1612 45.8587 85.1612 47.9487ZM162.962 47.9487L141.414 21.8532H158.105L171.175 37.7489L183.582 21.8532H199.875L179.608 47.9045L201.156 74H184.465L170.998 57.7069L158.502 74H142.209L162.962 47.9487ZM211.135 4.98611H236.435C243.824 4.98611 250.241 5.7809 255.687 7.37047C261.133 8.96004 265.636 11.2414 269.198 14.2145C272.79 17.1581 275.454 20.7494 277.19 24.9882C278.956 29.1976 279.84 33.9369 279.84 39.206C279.84 44.2103 278.971 48.8465 277.234 53.1148C275.498 57.3537 272.848 61.0332 269.287 64.1535C265.725 67.2443 261.221 69.6728 255.775 71.439C250.329 73.1758 243.912 74.0442 236.524 74.0442L211.135 74V4.98611ZM239.88 61.9016C244.06 61.9016 247.724 61.3717 250.874 60.312C254.024 59.2229 256.644 57.6922 258.734 55.7199C260.853 53.7477 262.443 51.3633 263.502 48.5669C264.562 45.7704 265.092 42.6501 265.092 39.206C265.092 35.8209 264.562 32.7742 263.502 30.066C262.443 27.3284 260.853 25.0177 258.734 23.1337C256.644 21.2203 254.024 19.7485 250.874 18.7182C247.724 17.688 244.06 17.1728 239.88 17.1728H225.132V61.9016H239.88ZM289.774 57.5744C289.774 55.0723 290.319 52.791 291.408 50.7304C292.497 48.6699 294.131 46.9037 296.309 45.4319C298.488 43.9306 301.196 42.7826 304.434 41.9878C307.701 41.1636 311.499 40.7515 315.826 40.7515C319.034 40.7515 322.405 40.987 325.937 41.4579C329.499 41.9289 333.164 42.6501 336.932 43.6215C336.784 41.9731 336.284 40.4571 335.43 39.0736C334.577 37.6606 333.385 36.4537 331.854 35.4529C330.353 34.4226 328.528 33.6278 326.379 33.0685C324.259 32.5092 321.845 32.2296 319.137 32.2296C317.665 32.2296 316.046 32.3179 314.28 32.4945C312.514 32.6711 310.689 32.9361 308.805 33.2893C306.921 33.6425 305.052 34.0841 303.197 34.614C301.372 35.1438 299.665 35.7767 298.075 36.5126L294.102 25.783C296.074 25.0765 298.179 24.4289 300.416 23.8402C302.682 23.2515 304.993 22.751 307.348 22.3389C309.703 21.8974 312.058 21.5589 314.413 21.3234C316.768 21.0879 319.049 20.9701 321.257 20.9701C331 20.9701 338.242 23.4575 342.981 28.4323C347.72 33.4071 350.09 41.0311 350.09 51.3045V74H337.02V69.0988C335.666 69.8936 334.179 70.6442 332.56 71.3507C330.971 72.0572 329.234 72.6754 327.35 73.2052C325.466 73.7351 323.435 74.1472 321.257 74.4415C319.108 74.7653 316.827 74.9272 314.413 74.9272C310.351 74.9272 306.774 74.4857 303.683 73.6026C300.622 72.7195 298.061 71.4979 296 69.9378C293.94 68.3776 292.38 66.5526 291.32 64.4626C290.29 62.3431 289.774 60.0471 289.774 57.5744ZM303.551 57.1329C303.551 57.9865 303.771 58.8108 304.213 59.6055C304.655 60.3709 305.361 61.0627 306.332 61.6808C307.304 62.2696 308.54 62.7553 310.041 63.1379C311.572 63.4912 313.412 63.6678 315.561 63.6678C317.857 63.6678 320.079 63.4617 322.228 63.0496C324.377 62.6375 326.379 62.0929 328.233 61.4159C330.088 60.7389 331.766 59.9588 333.267 59.0757C334.768 58.1926 336.019 57.2801 337.02 56.3381V54.042C335.018 53.4828 333.031 53.0118 331.059 52.6291C329.116 52.2464 327.247 51.9521 325.451 51.746C323.685 51.5105 322.007 51.3486 320.418 51.2603C318.858 51.172 317.489 51.1278 316.311 51.1278C313.868 51.1278 311.837 51.2897 310.218 51.6135C308.599 51.9373 307.289 52.3789 306.288 52.9382C305.287 53.468 304.581 54.1009 304.169 54.8368C303.757 55.5727 303.551 56.3381 303.551 57.1329ZM369.474 58.016C373.006 60.1354 376.892 61.6955 381.131 62.6964C385.369 63.6972 389.711 64.1976 394.156 64.1976C397.159 64.1976 399.661 63.9916 401.663 63.5795C403.664 63.1674 405.269 62.6375 406.475 61.9899C407.682 61.3423 408.536 60.6064 409.036 59.7822C409.537 58.9579 409.787 58.119 409.787 57.2653C409.787 56.029 409.242 54.9693 408.153 54.0862C407.094 53.2031 405.327 52.7616 402.855 52.7616C401.707 52.7616 400.47 52.8352 399.146 52.9823C397.821 53.1295 396.423 53.2914 394.951 53.468C393.509 53.6152 391.993 53.7624 390.403 53.9096C388.843 54.0568 387.253 54.1304 385.634 54.1304C382.102 54.1304 379.085 53.7477 376.583 52.9823C374.11 52.217 372.094 51.172 370.533 49.8473C368.973 48.5227 367.84 46.9626 367.134 45.1669C366.427 43.3419 366.074 41.3844 366.074 39.2944C366.074 36.6451 366.692 34.2018 367.928 31.9647C369.165 29.7275 370.931 27.7994 373.227 26.1804C375.523 24.532 378.29 23.2515 381.528 22.3389C384.795 21.4264 388.431 20.9701 392.434 20.9701C394.524 20.9701 396.703 21.1026 398.969 21.3675C401.265 21.603 403.517 21.9268 405.725 22.3389C407.933 22.751 410.052 23.2367 412.083 23.796C414.114 24.3259 415.91 24.8999 417.47 25.5181L413.364 35.6737C410.037 34.4373 406.711 33.4659 403.385 32.7595C400.088 32.0235 396.688 31.6556 393.185 31.6556C390.742 31.6556 388.666 31.8469 386.959 32.2296C385.281 32.5828 383.912 33.0685 382.853 33.6867C381.793 34.2754 381.013 34.9672 380.512 35.762C380.041 36.5273 379.806 37.3368 379.806 38.1905C379.806 38.8087 379.924 39.368 380.159 39.8684C380.424 40.3688 380.836 40.8103 381.396 41.193C381.984 41.5463 382.735 41.8259 383.647 42.032C384.589 42.2086 385.737 42.2969 387.091 42.2969C388.328 42.2969 389.638 42.2233 391.021 42.0761C392.405 41.9289 393.847 41.7817 395.348 41.6346C396.85 41.4579 398.395 41.296 399.985 41.1489C401.604 41.0017 403.252 40.9281 404.93 40.9281C408.05 40.9281 410.773 41.296 413.099 42.032C415.454 42.7679 417.396 43.7981 418.927 45.1228C420.458 46.4474 421.606 48.0076 422.371 49.8032C423.136 51.5988 423.519 53.5563 423.519 55.6758C423.519 58.4134 422.886 60.9596 421.621 63.3145C420.355 65.6695 418.471 67.7153 415.969 69.4521C413.467 71.1594 410.346 72.4987 406.608 73.4701C402.899 74.4415 398.601 74.9272 393.715 74.9272C390.712 74.9272 387.813 74.7359 385.016 74.3532C382.22 74 379.556 73.5143 377.024 72.8961C374.493 72.2485 372.108 71.4979 369.871 70.6442C367.663 69.7906 365.647 68.878 363.822 67.9066L369.474 58.016ZM435.308 0.791409H448.378V25.8713C451.116 24.3701 454.163 23.1779 457.518 22.2948C460.904 21.4117 464.451 20.9701 468.16 20.9701C472.457 20.9701 476.314 21.603 479.728 22.8688C483.172 24.1346 486.086 25.9596 488.471 28.344C490.855 30.6989 492.68 33.569 493.946 36.9542C495.241 40.3394 495.889 44.1514 495.889 48.3902V74H482.863V48.9201C482.863 46.4474 482.466 44.1955 481.671 42.1644C480.876 40.1039 479.713 38.3377 478.183 36.8658C476.652 35.394 474.783 34.2607 472.575 33.4659C470.397 32.6417 467.924 32.2296 465.157 32.2296C461.831 32.2296 458.74 32.7595 455.885 33.8192C453.029 34.8789 450.527 36.2182 448.378 37.8373V74H435.308V0.791409Z" fill="white"/>
</svg>
