<svg width="10" height="15" viewBox="0 0 10 15" fill="none" xmlns="http://www.w3.org/2000/svg">
<mask id="mask0_12_320" style="mask-type:luminance" maskUnits="userSpaceOnUse" x="0" y="0" width="10" height="15">
<path d="M9.51469 0H0V15H9.51469V0Z" fill="white"/>
</mask>
<g mask="url(#mask0_12_320)">
<path d="M4.28538 6.67125L9.40724 4.23935L9.49152 4.19964V4.19802C9.49492 4.19639 9.49656 4.19462 9.4998 4.19462H9.50143C9.5032 4.19462 9.5032 4.19462 9.50482 4.193C9.50645 4.19137 9.5097 4.18975 9.51147 4.18975H9.51308L9.5147 4.18813L9.38185 3.99798C9.3808 3.99575 9.37971 3.99354 9.37859 3.99134H9.37696L8.16832 2.25049L6.93829 0.478949C6.82161 0.310874 6.66085 0.178219 6.47367 0.0955671C6.28651 0.0129158 6.08017 -0.0165329 5.87734 0.0104578C5.67453 0.0374486 5.48308 0.119834 5.32404 0.248558C5.165 0.377283 5.04452 0.547364 4.97584 0.740105L3.70948 4.29959C3.67182 4.40399 3.64526 4.51205 3.63021 4.62201H3.62845C3.62764 4.62353 3.62721 4.62523 3.62721 4.62695C3.62721 4.62868 3.62764 4.63038 3.62845 4.6319C3.62752 4.63457 3.62696 4.63735 3.62681 4.64017C3.57704 4.98696 3.63292 5.3407 3.78714 5.65526L4.18573 6.4687L4.20227 6.50177L4.27019 6.64231L4.28538 6.67125Z" fill="url(#paint0_linear_12_320)"/>
<g style="mix-blend-mode:multiply" opacity="0.15">
<path d="M4.28547 6.67124L9.40731 4.23935L9.49161 4.19964V4.19801C9.495 4.19639 9.49663 4.19462 9.49987 4.19462H9.5015C9.50327 4.19462 9.50327 4.19462 9.50489 4.19299C9.50652 4.19137 9.50976 4.18974 9.51154 4.18974H9.51316L9.51478 4.18812L9.38192 3.99797C9.38088 3.99574 9.37979 3.99353 9.37867 3.99133H9.37705L8.16841 2.25049L8.09239 2.33139L4.18567 6.46796L4.2022 6.50102L4.27011 6.64157L4.28547 6.67124Z" fill="black"/>
</g>
<g style="mix-blend-mode:multiply" opacity="0.3">
<path d="M4.28553 6.67121L9.4911 4.1996C9.49473 4.19873 9.49812 4.197 9.50097 4.19458C9.49747 4.19499 9.49411 4.19615 9.4911 4.19798C9.42334 4.2244 9.21339 4.31032 8.89436 4.4426C8.50241 4.61134 7.93876 4.8412 7.26912 5.13365C6.59947 5.4261 5.82088 5.76845 4.98928 6.1455C4.733 6.26286 4.46845 6.38023 4.20227 6.50099L4.28553 6.67121Z" fill="black"/>
</g>
<path d="M5.29403 14.7922C5.29591 14.7906 5.29814 14.7894 5.30053 14.7888C5.30534 14.7867 5.30982 14.7839 5.31382 14.7805C5.34187 14.7674 5.37006 14.7525 5.39649 14.7376L8.05499 13.2117C8.49859 12.9566 8.86712 12.589 9.12339 12.1461C9.37967 11.7031 9.51466 11.2004 9.51475 10.6887V4.1886L9.51313 4.19022H9.5115C9.50973 4.19022 9.50811 4.19186 9.50486 4.19349C9.50161 4.19511 9.50323 4.19511 9.50146 4.19511C9.49796 4.19551 9.49458 4.19667 9.49157 4.19849V4.20011L1.53112 7.92496C1.14334 8.10654 0.805185 8.37915 0.545448 8.71957C0.285711 9.05999 0.112087 9.45813 0.0393519 9.8801C-0.0333827 10.3021 -0.00307419 10.7354 0.127705 11.1431C0.258484 11.5508 0.485857 11.9209 0.790463 12.2218L1.94448 13.3608C1.94944 13.3652 1.95384 13.3701 1.95762 13.3756L1.95775 13.3762L1.95815 13.3768L1.95872 13.3771L1.95939 13.3772L1.96101 13.379L3.02571 14.4304C3.3187 14.72 3.69499 14.9106 4.10178 14.9754C4.50859 15.0404 4.92551 14.9763 5.29403 14.7922Z" fill="url(#paint1_linear_12_320)"/>
<g style="mix-blend-mode:multiply" opacity="0.3">
<path d="M5.30054 14.7884C5.33361 14.7718 5.36505 14.7553 5.3965 14.7371L8.055 13.2112C8.4986 12.9561 8.86712 12.5885 9.12339 12.1456C9.37968 11.7026 9.51465 11.2 9.51476 10.6882V6.17358C9.51476 6.17358 9.49999 6.34232 9.48331 6.63655C9.46663 6.93077 9.43902 7.34917 9.42057 7.85332C9.39902 8.35762 9.38086 8.94576 9.36934 9.57599C9.36432 9.89015 9.35606 10.2158 9.35458 10.5465C9.36496 10.8649 9.3225 11.1827 9.22895 11.4872C9.04714 12.088 8.67013 12.6111 8.1576 12.9735C8.09634 13.0178 8.03359 13.0562 7.9707 13.0959C7.90457 13.1355 7.83784 13.1752 7.77406 13.2149C7.64503 13.2943 7.5194 13.372 7.39539 13.448C7.14915 13.5968 6.91767 13.7422 6.70434 13.8779C6.27622 14.1436 5.92737 14.3788 5.67935 14.5375C5.55534 14.6169 5.46116 14.6852 5.39502 14.7277C5.34527 14.7588 5.31309 14.7805 5.30054 14.7884Z" fill="black"/>
</g>
<g style="mix-blend-mode:screen" opacity="0.4">
<path d="M9.49097 4.19813V4.19983C9.49478 4.19892 9.49831 4.19711 9.50129 4.19458C9.49763 4.19501 9.49412 4.19622 9.49097 4.19813Z" fill="white"/>
</g>
<g style="mix-blend-mode:screen" opacity="0.4">
<path d="M1.9445 13.3603C1.89652 13.3058 1.74446 13.1389 1.50796 12.8858C1.36255 12.7305 1.18569 12.542 0.98226 12.3248C0.932657 12.272 0.874785 12.2123 0.828577 12.1595C0.779366 12.0984 0.728092 12.0356 0.674749 11.9711C0.622959 11.9071 0.575465 11.8396 0.532579 11.7693C0.483055 11.6992 0.440439 11.6244 0.405323 11.5461C0.233454 11.2101 0.138548 10.84 0.127487 10.4628C0.117944 10.0446 0.208654 9.63024 0.392038 9.2543C0.587707 8.85591 0.884803 8.51605 1.25346 8.26888C1.45032 8.14509 1.65649 8.03675 1.87011 7.94483C2.08993 7.844 2.31151 7.74155 2.53133 7.63894C2.97111 7.43064 3.4109 7.22234 3.84404 7.0189C4.27719 6.81547 4.70208 6.60731 5.11367 6.4089C5.93537 6.01207 6.69919 5.63518 7.35053 5.30611C8.00349 4.98044 8.5425 4.69611 8.92279 4.50257C9.22868 4.34224 9.42872 4.23477 9.49146 4.20007L1.53099 7.9249C1.14322 8.1065 0.805062 8.3791 0.545325 8.71952C0.285588 9.05993 0.111963 9.45807 0.0392286 9.88004C-0.033506 10.302 -0.0031931 10.7353 0.127586 11.143C0.258365 11.5508 0.485735 11.9209 0.790341 12.2218L1.9445 13.3603Z" fill="white"/>
</g>
<g style="mix-blend-mode:screen" opacity="0.2">
<path d="M4.91035 14.24L4.93515 14.2152L5.03436 14.1805C5.04645 14.1754 5.05811 14.1693 5.0692 14.1623L7.72652 12.638C8.02144 12.4683 8.27386 12.2336 8.46467 11.9519L0.976921 9.25024C0.770515 9.57485 0.661541 9.95184 0.662916 10.3365C0.663078 10.6 0.71563 10.8607 0.817514 11.1037C0.919399 11.3467 1.06858 11.5669 1.25638 11.7517L2.23339 12.7155H2.24343L2.4104 12.8892C2.41867 12.899 2.4318 12.9106 2.44509 12.9255L3.49163 13.9589C3.67458 14.1396 3.90656 14.2625 4.15878 14.3125C4.41099 14.3624 4.67234 14.3372 4.91035 14.24Z" fill="white"/>
</g>
<g style="mix-blend-mode:multiply" opacity="0.3">
<path d="M9.37963 3.99133H9.37762C9.37762 3.99334 9.37963 3.99334 9.38164 3.99535C9.38054 3.99427 9.37983 3.99285 9.37963 3.99133Z" fill="black"/>
</g>
<g style="mix-blend-mode:multiply" opacity="0.3">
<path d="M3.7102 4.29889C3.67254 4.40328 3.64596 4.51136 3.63092 4.62132C3.63579 4.60301 3.64406 4.56832 3.65735 4.52048C3.69049 4.41133 3.73134 4.30467 3.77958 4.20131C3.89208 3.92524 4.06244 3.53698 4.25081 3.06457C4.43919 2.59215 4.65753 2.03781 4.88075 1.44256C4.93699 1.2939 4.99309 1.14332 5.05096 0.989637C5.08049 0.915823 5.10884 0.830936 5.13866 0.763174L5.18162 0.665593L5.23949 0.574652C5.36668 0.398212 5.54887 0.269021 5.75746 0.207376C5.96604 0.145729 6.18921 0.15512 6.39188 0.234072C6.4576 0.262837 6.52018 0.298309 6.57863 0.339922C6.60786 0.357797 6.63457 0.379492 6.65805 0.404436C6.68585 0.425938 6.71133 0.450282 6.73408 0.477069L6.81174 0.574652L6.87787 0.667217C6.92585 0.733355 6.97383 0.801115 7.02166 0.867253C7.11762 1.00012 7.21181 1.1318 7.30437 1.26083C7.58044 1.64467 7.84662 2.00636 8.09301 2.33203C8.17568 2.44615 8.25835 2.55525 8.33778 2.65947C8.64352 3.06619 8.90969 3.3985 9.08995 3.63382C9.25027 3.83888 9.3545 3.96451 9.37768 3.99256L8.16904 2.25172L6.93899 0.480169C6.82231 0.312094 6.66155 0.179438 6.47437 0.0967879C6.28721 0.0141366 6.08087 -0.0153122 5.87806 0.0116786C5.67523 0.0386693 5.48378 0.121055 5.32474 0.249779C5.1657 0.378504 5.04522 0.548583 4.97656 0.741327L3.7102 4.29889Z" fill="black"/>
</g>
<g style="mix-blend-mode:multiply" opacity="0.3">
<path d="M3.62917 4.62134C3.62832 4.62293 3.62787 4.6247 3.62787 4.62649C3.62787 4.6283 3.62832 4.63009 3.62917 4.63168C3.63011 4.62828 3.63072 4.62483 3.63103 4.62134H3.62917Z" fill="black"/>
</g>
</g>
<defs>
<linearGradient id="paint0_linear_12_320" x1="-157.92" y1="236.33" x2="-153.481" y2="238.375" gradientUnits="userSpaceOnUse">
<stop stop-color="#FD356E"/>
<stop offset="0.238" stop-color="#FD356E"/>
<stop offset="0.44" stop-color="#FD356E"/>
<stop offset="0.629" stop-color="#FD356E"/>
<stop offset="0.81" stop-color="#FD356E"/>
<stop offset="0.983" stop-color="#FD356E"/>
<stop offset="1" stop-color="#FD356E"/>
</linearGradient>
<linearGradient id="paint1_linear_12_320" x1="-150.483" y1="241.577" x2="-145.511" y2="233.213" gradientUnits="userSpaceOnUse">
<stop stop-color="#FD356E"/>
<stop offset="0.238" stop-color="#FD356E"/>
<stop offset="0.44" stop-color="#FD356E"/>
<stop offset="0.629" stop-color="#FD356E"/>
<stop offset="0.81" stop-color="#FD356E"/>
<stop offset="0.983" stop-color="#FD356E"/>
<stop offset="1" stop-color="#FD356E"/>
</linearGradient>
</defs>
</svg>
