<svg width="152" height="28" viewBox="0 0 152 28" fill="none" xmlns="http://www.w3.org/2000/svg">
<g clip-path="url(#clip0_173_272)">
<g clip-path="url(#clip1_173_272)">
<g clip-path="url(#clip2_173_272)">
<mask id="mask0_173_272" style="mask-type:luminance" maskUnits="userSpaceOnUse" x="3" y="3" width="16" height="23">
<path d="M18.0139 3.10205H3.74829V25.5918H18.0139V3.10205Z" fill="white"/>
</mask>
<g mask="url(#mask0_173_272)">
<path d="M10.1735 13.1044L17.8528 9.45819L17.9792 9.39865V9.39623C17.9843 9.39378 17.9867 9.39113 17.9916 9.39113H17.994C17.994 9.39113 17.9967 9.39113 17.9991 9.3887C18.0016 9.38626 18.0091 9.38383 18.0091 9.38383H18.0115L18.0139 9.3814L17.8148 9.0963C17.8132 9.09296 17.8116 9.08964 17.8099 9.08635H17.8074L15.9953 6.47626L14.1511 3.82015C13.9761 3.56815 13.7351 3.36926 13.4545 3.24534C13.1739 3.12142 12.8645 3.07726 12.5604 3.11773C12.2563 3.1582 11.9693 3.28172 11.7308 3.47472C11.4924 3.66772 11.3117 3.92272 11.2087 4.21171L9.31007 9.54851C9.2536 9.70504 9.21378 9.86706 9.19121 10.0319H9.18858L9.18672 10.0393L9.18858 10.0468C9.18718 10.0508 9.18634 10.0549 9.18612 10.0592C9.1115 10.5791 9.19528 11.1095 9.4265 11.5811L10.0241 12.8007L10.0489 12.8503L10.1507 13.061L10.1735 13.1044Z" fill="url(#paint0_linear_173_272)"/>
<g style="mix-blend-mode:multiply" opacity="0.15">
<path d="M10.1736 13.1043L17.8529 9.45813L17.9793 9.39859V9.39615C17.9844 9.39372 17.9868 9.39107 17.9917 9.39107H17.9941C17.9941 9.39107 17.9968 9.39107 17.9992 9.38862C18.0016 9.3862 18.0092 9.38375 18.0092 9.38375H18.0116L18.014 9.38132L17.8148 9.09623C17.8133 9.09288 17.8116 9.08957 17.81 9.08627H17.8075L15.9954 6.4762L15.8814 6.59749L10.024 12.7995L10.0488 12.8491L10.1506 13.0598L10.1736 13.1043Z" fill="black"/>
</g>
<g style="mix-blend-mode:multiply" opacity="0.3">
<path d="M10.1737 13.1044L17.9785 9.39864C17.984 9.39734 17.9891 9.39474 17.9933 9.39111C17.9881 9.39173 17.983 9.39347 17.9785 9.39621C17.8769 9.43582 17.5622 9.56464 17.0838 9.76297C16.4962 10.016 15.6511 10.3606 14.6471 10.7991C13.6431 11.2376 12.4757 11.7508 11.2289 12.3162C10.8446 12.4921 10.448 12.6681 10.0489 12.8492L10.1737 13.1044Z" fill="black"/>
</g>
<path d="M11.6857 25.2803C11.6886 25.2779 11.6919 25.2761 11.6955 25.2752C11.7027 25.272 11.7094 25.2678 11.7154 25.2627C11.7575 25.2431 11.7997 25.2207 11.8394 25.1984L15.8253 22.9106C16.4904 22.5281 17.0429 21.977 17.4272 21.3129C17.8114 20.6487 18.0138 19.895 18.0139 19.1278V9.38208L18.0115 9.38451H18.0091C18.0064 9.38451 18.004 9.38697 17.9991 9.38941C17.9942 9.39184 17.9967 9.39184 17.994 9.39184C17.9888 9.39244 17.9837 9.39418 17.9792 9.39691V9.39934L6.04393 14.9841C5.46252 15.2563 4.95552 15.6651 4.56609 16.1755C4.17666 16.6859 3.91635 17.2828 3.80729 17.9155C3.69824 18.5482 3.74368 19.1978 3.93976 19.8091C4.13584 20.4204 4.47675 20.9753 4.93345 21.4264L6.66369 23.1341C6.67113 23.1407 6.67772 23.1481 6.68339 23.1563L6.68418 23.1581L6.68604 23.1587L6.68847 23.1614L8.2848 24.7378C8.72408 25.172 9.28826 25.4578 9.89817 25.5549C10.5081 25.6524 11.1332 25.5563 11.6857 25.2803Z" fill="url(#paint1_linear_173_272)"/>
<g style="mix-blend-mode:multiply" opacity="0.3">
<path d="M11.6955 25.2746C11.7451 25.2498 11.7922 25.225 11.8394 25.1977L15.8253 22.9099C16.4904 22.5274 17.0429 21.9763 17.4272 21.3122C17.8114 20.648 18.0138 19.8945 18.014 19.1271V12.3583C18.014 12.3583 17.9918 12.6113 17.9668 13.0524C17.9418 13.4935 17.9004 14.1209 17.8727 14.8767C17.8404 15.6329 17.8132 16.5147 17.7959 17.4596C17.7884 17.9306 17.776 18.4189 17.7738 18.9147C17.7894 19.3921 17.7257 19.8685 17.5854 20.3251C17.3128 21.2259 16.7476 22.0102 15.9791 22.5535C15.8873 22.62 15.7932 22.6775 15.6989 22.737C15.5998 22.7964 15.4997 22.8559 15.4041 22.9155C15.2106 23.0345 15.0223 23.151 14.8363 23.265C14.4672 23.4881 14.1201 23.7061 13.8002 23.9095C13.1584 24.3079 12.6353 24.6605 12.2635 24.8985C12.0775 25.0175 11.9363 25.1199 11.8372 25.1836C11.7626 25.2303 11.7143 25.2628 11.6955 25.2746Z" fill="black"/>
</g>
<g style="mix-blend-mode:screen" opacity="0.4">
<path d="M17.9783 9.39645V9.39901C17.9841 9.39764 17.9894 9.39492 17.9939 9.39111C17.9883 9.39176 17.9831 9.39358 17.9783 9.39645Z" fill="white"/>
</g>
<g style="mix-blend-mode:screen" opacity="0.4">
<path d="M6.66372 23.1335C6.59178 23.0518 6.36379 22.8016 6.00921 22.4221C5.79119 22.1893 5.52602 21.9066 5.22101 21.581C5.14664 21.5018 5.05987 21.4123 4.99059 21.3331C4.91681 21.2415 4.83993 21.1474 4.75996 21.0507C4.68231 20.9547 4.6111 20.8535 4.5468 20.7481C4.47255 20.643 4.40865 20.5309 4.356 20.4135C4.09831 19.9097 3.95602 19.3548 3.93944 18.7892C3.92513 18.1622 4.06113 17.541 4.33608 16.9773C4.62945 16.38 5.07489 15.8704 5.62763 15.4999C5.92278 15.3143 6.2319 15.1518 6.55218 15.014C6.88176 14.8628 7.21398 14.7092 7.54356 14.5554C8.20294 14.2431 8.86232 13.9308 9.51174 13.6257C10.1612 13.3207 10.7982 13.0086 11.4153 12.7112C12.6473 12.1162 13.7925 11.5511 14.7691 11.0577C15.7481 10.5694 16.5562 10.1431 17.1264 9.85296C17.585 9.61257 17.885 9.45144 17.979 9.39941L6.04374 14.9841C5.46234 15.2564 4.95534 15.6651 4.56591 16.1755C4.17648 16.6859 3.91616 17.2828 3.80711 17.9155C3.69806 18.5482 3.7435 19.1978 3.93958 19.8091C4.13566 20.4205 4.47656 20.9754 4.93327 21.4266L6.66372 23.1335Z" fill="white"/>
</g>
<g style="mix-blend-mode:screen" opacity="0.2">
<path d="M11.1105 24.4523L11.1477 24.4151L11.2964 24.3631C11.3145 24.3555 11.332 24.3463 11.3486 24.3358L15.3328 22.0504C15.775 21.796 16.1534 21.4441 16.4395 21.0217L5.213 16.9711C4.90353 17.4578 4.74015 18.023 4.74221 18.5997C4.74245 18.9948 4.82124 19.3857 4.974 19.75C5.12676 20.1143 5.35043 20.4445 5.632 20.7216L7.09685 22.1666H7.1119L7.36224 22.427C7.37464 22.4417 7.39433 22.4591 7.41426 22.4815L8.98335 24.0309C9.25765 24.3018 9.60547 24.486 9.98362 24.561C10.3618 24.6358 10.7536 24.598 11.1105 24.4523Z" fill="white"/>
</g>
<g style="mix-blend-mode:multiply" opacity="0.3">
<path d="M17.8116 9.08643H17.8083C17.8083 9.08966 17.8116 9.08966 17.8148 9.09289L17.8116 9.08643Z" fill="black"/>
</g>
<g style="mix-blend-mode:multiply" opacity="0.3">
<path d="M9.31113 9.54746C9.25466 9.70398 9.21481 9.86602 9.19226 10.0309C9.19956 10.0034 9.21196 9.95142 9.23189 9.8797C9.28158 9.71605 9.34282 9.55613 9.41515 9.40116C9.58382 8.98724 9.83925 8.40512 10.1217 7.69682C10.4041 6.98851 10.7315 6.15738 11.0662 5.26491C11.1505 5.04202 11.2346 4.81625 11.3214 4.58583C11.3656 4.47516 11.4081 4.34789 11.4528 4.24629L11.5173 4.09999L11.604 3.96364C11.7947 3.6991 12.0679 3.5054 12.3806 3.41298C12.6934 3.32055 13.028 3.33463 13.3318 3.453C13.4304 3.49613 13.5242 3.54931 13.6118 3.6117C13.6556 3.6385 13.6957 3.67103 13.7309 3.70843C13.7726 3.74067 13.8108 3.77717 13.8449 3.81733L13.9613 3.96364L14.0605 4.10242C14.1324 4.20159 14.2044 4.30318 14.2761 4.40234C14.4199 4.60155 14.5612 4.79898 14.6999 4.99244C15.1139 5.56794 15.5129 6.11023 15.8824 6.59851C16.0063 6.76961 16.1303 6.93319 16.2493 7.08945C16.7078 7.69925 17.1068 8.19749 17.3771 8.55031C17.6175 8.85776 17.7737 9.04612 17.8085 9.08818L15.9964 6.4781L14.1521 3.82198C13.9772 3.56998 13.7361 3.37109 13.4555 3.24717C13.1749 3.12325 12.8655 3.07909 12.5614 3.11956C12.2573 3.16003 11.9703 3.28355 11.7318 3.47655C11.4934 3.66955 11.3127 3.92455 11.2098 4.21354L9.31113 9.54746Z" fill="black"/>
</g>
<g style="mix-blend-mode:multiply" opacity="0.3">
<path d="M9.18958 10.0309L9.18762 10.0386L9.18958 10.0464C9.19099 10.0413 9.19191 10.0361 9.19237 10.0309H9.18958Z" fill="black"/>
</g>
</g>
</g>
</g>
</g>
<path d="M24.9625 4.59109H40.5336V7.68749H28.4933V12.243H38.7181V15.15H28.4933V22H24.9625V4.59109ZM42.7389 15.4285C42.7389 14.4855 42.9283 13.6018 43.307 12.7776C43.6931 11.9534 44.2389 11.2331 44.9443 10.6168C45.6571 10.0005 46.5148 9.51415 47.5172 9.15773C48.5271 8.80131 49.6594 8.6231 50.9143 8.6231C52.1692 8.6231 53.2979 8.80131 54.3003 9.15773C55.3102 9.51415 56.1678 10.0005 56.8732 10.6168C57.5861 11.2331 58.1318 11.9534 58.5105 12.7776C58.8967 13.6018 59.0897 14.4855 59.0897 15.4285C59.0897 16.3715 58.8967 17.2552 58.5105 18.0794C58.1318 18.9036 57.5861 19.6239 56.8732 20.2402C56.1678 20.8565 55.3102 21.3428 54.3003 21.6993C53.2979 22.0557 52.1692 22.2339 50.9143 22.2339C49.6594 22.2339 48.5271 22.0557 47.5172 21.6993C46.5148 21.3428 45.6571 20.8565 44.9443 20.2402C44.2389 19.6239 43.6931 18.9036 43.307 18.0794C42.9283 17.2552 42.7389 16.3715 42.7389 15.4285ZM46.2029 15.4285C46.2029 15.9557 46.3069 16.4569 46.5148 16.9321C46.7301 17.3999 47.0383 17.8158 47.4392 18.1796C47.8476 18.536 48.3414 18.8219 48.9206 19.0373C49.5072 19.2452 50.1718 19.3491 50.9143 19.3491C51.6569 19.3491 52.3177 19.2452 52.8969 19.0373C53.4835 18.8219 53.9773 18.536 54.3783 18.1796C54.7867 17.8158 55.0948 17.3999 55.3028 16.9321C55.5181 16.4569 55.6258 15.9557 55.6258 15.4285C55.6258 14.9013 55.5181 14.4001 55.3028 13.9249C55.0948 13.4496 54.7867 13.0338 54.3783 12.6774C53.9773 12.3135 53.4835 12.0277 52.8969 11.8197C52.3177 11.6044 51.6569 11.4967 50.9143 11.4967C50.1718 11.4967 49.5072 11.6044 48.9206 11.8197C48.3414 12.0277 47.8476 12.3135 47.4392 12.6774C47.0383 13.0338 46.7301 13.4496 46.5148 13.9249C46.3069 14.4001 46.2029 14.9013 46.2029 15.4285ZM65.8283 15.4285L60.3929 8.84586H64.6031L67.9 12.8556L71.0298 8.84586H75.1398L70.0274 15.4174L75.4628 22H71.2526L67.8554 17.89L64.7033 22H60.5934L65.8283 15.4285ZM77.98 4.59109H84.3622C86.2259 4.59109 87.8447 4.79158 89.2184 5.19255C90.5921 5.59352 91.7282 6.16899 92.6267 6.91896C93.5326 7.6615 94.2046 8.56741 94.6427 9.63667C95.0882 10.6985 95.3109 11.894 95.3109 13.2231C95.3109 14.4855 95.0919 15.655 94.6538 16.7317C94.2157 17.8009 93.5474 18.7291 92.6489 19.5162C91.7505 20.2959 90.6144 20.9085 89.2407 21.354C87.867 21.7921 86.2482 22.0111 84.3844 22.0111L77.98 22V4.59109ZM85.2309 18.9482C86.2853 18.9482 87.2098 18.8145 88.0043 18.5472C88.7989 18.2724 89.4597 17.8863 89.9869 17.3888C90.5215 16.8913 90.9225 16.2898 91.1898 15.5844C91.4572 14.879 91.5908 14.0919 91.5908 13.2231C91.5908 12.3692 91.4572 11.6007 91.1898 10.9176C90.9225 10.227 90.5215 9.64409 89.9869 9.16887C89.4597 8.68621 88.7989 8.31494 88.0043 8.05505C87.2098 7.79516 86.2853 7.66522 85.2309 7.66522H81.5108V18.9482H85.2309ZM97.817 17.8566C97.817 17.2255 97.9544 16.65 98.2291 16.1302C98.5039 15.6104 98.916 15.1649 99.4655 14.7936C100.015 14.4149 100.698 14.1253 101.515 13.9249C102.339 13.7169 103.297 13.613 104.389 13.613C105.198 13.613 106.048 13.6724 106.939 13.7912C107.838 13.91 108.762 14.0919 109.713 14.337C109.675 13.9211 109.549 13.5387 109.334 13.1897C109.119 12.8333 108.818 12.5289 108.432 12.2764C108.053 12.0165 107.593 11.816 107.051 11.6749C106.516 11.5339 105.907 11.4633 105.224 11.4633C104.853 11.4633 104.444 11.4856 103.999 11.5302C103.553 11.5747 103.093 11.6415 102.618 11.7306C102.142 11.8197 101.671 11.9311 101.203 12.0648C100.743 12.1984 100.312 12.3581 99.911 12.5437L98.9086 9.83715C99.4061 9.65894 99.937 9.49558 100.501 9.34708C101.073 9.19857 101.656 9.07234 102.25 8.96838C102.844 8.857 103.438 8.77161 104.032 8.7122C104.626 8.6528 105.202 8.6231 105.759 8.6231C108.216 8.6231 110.043 9.25055 111.238 10.5054C112.434 11.7603 113.032 13.6835 113.032 16.275V22H109.735V20.7637C109.393 20.9642 109.018 21.1535 108.61 21.3317C108.209 21.5099 107.771 21.6659 107.296 21.7995C106.82 21.9332 106.308 22.0371 105.759 22.1114C105.216 22.1931 104.641 22.2339 104.032 22.2339C103.007 22.2339 102.105 22.1225 101.326 21.8998C100.553 21.677 99.9073 21.3688 99.3875 20.9753C98.8677 20.5817 98.4742 20.1214 98.2069 19.5942C97.947 19.0595 97.817 18.4803 97.817 17.8566ZM101.292 17.7452C101.292 17.9606 101.348 18.1685 101.459 18.369C101.571 18.562 101.749 18.7365 101.994 18.8925C102.239 19.041 102.551 19.1635 102.929 19.26C103.316 19.3491 103.78 19.3937 104.322 19.3937C104.901 19.3937 105.462 19.3417 106.004 19.2377C106.546 19.1338 107.051 18.9964 107.518 18.8256C107.986 18.6548 108.409 18.4581 108.788 18.2353C109.167 18.0125 109.482 17.7824 109.735 17.5447V16.9656C109.23 16.8245 108.729 16.7057 108.231 16.6091C107.741 16.5126 107.27 16.4384 106.817 16.3864C106.371 16.327 105.948 16.2861 105.547 16.2639C105.153 16.2416 104.808 16.2304 104.511 16.2304C103.895 16.2304 103.382 16.2713 102.974 16.353C102.566 16.4346 102.235 16.546 101.983 16.6871C101.73 16.8208 101.552 16.9804 101.448 17.166C101.344 17.3517 101.292 17.5447 101.292 17.7452ZM117.921 17.968C118.812 18.5026 119.793 18.8962 120.862 19.1486C121.931 19.4011 123.026 19.5273 124.148 19.5273C124.905 19.5273 125.536 19.4754 126.041 19.3714C126.546 19.2674 126.951 19.1338 127.255 18.9704C127.56 18.8071 127.775 18.6214 127.901 18.4135C128.027 18.2056 128.09 17.994 128.09 17.7786C128.09 17.4668 127.953 17.1995 127.678 16.9767C127.411 16.7539 126.966 16.6426 126.342 16.6426C126.052 16.6426 125.74 16.6611 125.406 16.6982C125.072 16.7354 124.719 16.7762 124.348 16.8208C123.984 16.8579 123.602 16.895 123.201 16.9321C122.807 16.9693 122.406 16.9878 121.998 16.9878C121.107 16.9878 120.346 16.8913 119.715 16.6982C119.091 16.5052 118.582 16.2416 118.189 15.9074C117.795 15.5733 117.509 15.1797 117.331 14.7268C117.153 14.2664 117.064 13.7726 117.064 13.2454C117.064 12.5771 117.22 11.9608 117.532 11.3965C117.843 10.8322 118.289 10.3458 118.868 9.9374C119.447 9.52157 120.145 9.19857 120.962 8.96838C121.786 8.73819 122.703 8.6231 123.713 8.6231C124.24 8.6231 124.79 8.65651 125.362 8.72334C125.941 8.78274 126.509 8.86442 127.066 8.96838C127.623 9.07234 128.157 9.19485 128.67 9.33594C129.182 9.4696 129.635 9.61439 130.029 9.77033L128.993 12.3321C128.154 12.0202 127.315 11.7752 126.475 11.597C125.644 11.4113 124.786 11.3185 123.903 11.3185C123.286 11.3185 122.763 11.3668 122.332 11.4633C121.909 11.5524 121.564 11.6749 121.296 11.8309C121.029 11.9794 120.832 12.1539 120.706 12.3544C120.587 12.5474 120.528 12.7516 120.528 12.967C120.528 13.1229 120.557 13.264 120.617 13.3902C120.684 13.5165 120.788 13.6278 120.929 13.7244C121.077 13.8135 121.267 13.884 121.497 13.936C121.734 13.9805 122.024 14.0028 122.365 14.0028C122.677 14.0028 123.008 13.9843 123.357 13.9471C123.706 13.91 124.07 13.8729 124.448 13.8357C124.827 13.7912 125.217 13.7504 125.618 13.7132C126.026 13.6761 126.442 13.6575 126.865 13.6575C127.652 13.6575 128.339 13.7504 128.926 13.936C129.52 14.1216 130.01 14.3815 130.396 14.7157C130.782 15.0498 131.072 15.4433 131.265 15.8963C131.458 16.3493 131.554 16.843 131.554 17.3777C131.554 18.0682 131.395 18.7105 131.076 19.3046C130.756 19.8986 130.281 20.4147 129.65 20.8528C129.019 21.2834 128.232 21.6213 127.289 21.8663C126.353 22.1114 125.269 22.2339 124.036 22.2339C123.279 22.2339 122.547 22.1856 121.842 22.0891C121.137 22 120.465 21.8775 119.826 21.7215C119.187 21.5582 118.586 21.3688 118.022 21.1535C117.465 20.9382 116.956 20.708 116.496 20.4629L117.921 17.968ZM134.528 3.53297H137.825V9.85943C138.516 9.48073 139.284 9.18 140.131 8.95724C140.985 8.73448 141.879 8.6231 142.815 8.6231C143.899 8.6231 144.872 8.78274 145.733 9.10204C146.602 9.42133 147.337 9.88171 147.939 10.4832C148.54 11.0772 149 11.8012 149.32 12.6551C149.646 13.509 149.81 14.4706 149.81 15.5399V22H146.524V15.6735C146.524 15.0498 146.424 14.4818 146.223 13.9694C146.023 13.4496 145.73 13.0041 145.343 12.6328C144.957 12.2616 144.486 11.9757 143.929 11.7752C143.379 11.5673 142.756 11.4633 142.058 11.4633C141.219 11.4633 140.439 11.597 139.719 11.8643C138.998 12.1316 138.367 12.4695 137.825 12.8779V22H134.528V3.53297Z" fill="white"/>
<defs>
<linearGradient id="paint0_linear_173_272" x1="-233.024" y1="357.436" x2="-226.369" y2="360.502" gradientUnits="userSpaceOnUse">
<stop stop-color="#FD356E"/>
<stop offset="0.238" stop-color="#FD356E"/>
<stop offset="0.44" stop-color="#FD356E"/>
<stop offset="0.629" stop-color="#FD356E"/>
<stop offset="0.81" stop-color="#FD356E"/>
<stop offset="0.983" stop-color="#FD356E"/>
<stop offset="1" stop-color="#FD356E"/>
</linearGradient>
<linearGradient id="paint1_linear_173_272" x1="-221.874" y1="365.303" x2="-214.419" y2="352.763" gradientUnits="userSpaceOnUse">
<stop stop-color="#FD356E"/>
<stop offset="0.238" stop-color="#FD356E"/>
<stop offset="0.44" stop-color="#FD356E"/>
<stop offset="0.629" stop-color="#FD356E"/>
<stop offset="0.81" stop-color="#FD356E"/>
<stop offset="0.983" stop-color="#FD356E"/>
<stop offset="1" stop-color="#FD356E"/>
</linearGradient>
<clipPath id="clip0_173_272">
<rect width="22.4898" height="22.4898" fill="white" transform="translate(0 3.10205)"/>
</clipPath>
<clipPath id="clip1_173_272">
<rect width="22.4898" height="22.4898" fill="white" transform="translate(0 3.10205)"/>
</clipPath>
<clipPath id="clip2_173_272">
<rect width="14.9932" height="22.4898" fill="white" transform="translate(3.74829 3.10205)"/>
</clipPath>
</defs>
</svg>
