<svg width="23" height="23" viewBox="0 0 23 23" fill="none" xmlns="http://www.w3.org/2000/svg">
<g clip-path="url(#clip0_173_244)">
<g clip-path="url(#clip1_173_244)">
<g clip-path="url(#clip2_173_244)">
<mask id="mask0_173_244" style="mask-type:luminance" maskUnits="userSpaceOnUse" x="3" y="0" width="16" height="23">
<path d="M18.0139 0.102051H3.74829V22.5918H18.0139V0.102051Z" fill="white"/>
</mask>
<g mask="url(#mask0_173_244)">
<path d="M10.1735 10.1044L17.8528 6.45819L17.9792 6.39865V6.39623C17.9843 6.39378 17.9867 6.39113 17.9916 6.39113H17.9941C17.9941 6.39113 17.9967 6.39113 17.9991 6.3887C18.0016 6.38626 18.0091 6.38383 18.0091 6.38383H18.0115L18.0139 6.3814L17.8148 6.0963C17.8132 6.09296 17.8116 6.08964 17.8099 6.08635H17.8074L15.9953 3.47626L14.1511 0.820149C13.9761 0.568151 13.7351 0.369259 13.4545 0.245337C13.1739 0.121416 12.8645 0.0772632 12.5604 0.117731C12.2563 0.158199 11.9693 0.281721 11.7308 0.474719C11.4924 0.667719 11.3117 0.922725 11.2087 1.21171L9.31007 6.54851C9.2536 6.70504 9.21378 6.86706 9.19121 7.03192H9.18858L9.18672 7.03933L9.18858 7.04675C9.18718 7.05075 9.18634 7.05492 9.18612 7.05915C9.1115 7.5791 9.19528 8.10947 9.4265 8.58109L10.0241 9.8007L10.0489 9.85028L10.1507 10.061L10.1735 10.1044Z" fill="url(#paint0_linear_173_244)"/>
<g style="mix-blend-mode:multiply" opacity="0.15">
<path d="M10.1736 10.1043L17.8529 6.45813L17.9793 6.3986V6.39615C17.9844 6.39372 17.9868 6.39107 17.9917 6.39107H17.9941C17.9941 6.39107 17.9968 6.39107 17.9992 6.38862C18.0016 6.3862 18.0092 6.38375 18.0092 6.38375H18.0116L18.014 6.38132L17.8148 6.09623C17.8133 6.09288 17.8116 6.08957 17.81 6.08627H17.8075L15.9954 3.4762L15.8814 3.59749L10.024 9.79953L10.0488 9.8491L10.1506 10.0598L10.1736 10.1043Z" fill="black"/>
</g>
<g style="mix-blend-mode:multiply" opacity="0.3">
<path d="M10.1737 10.1044L17.9785 6.39864C17.984 6.39734 17.9891 6.39474 17.9933 6.39111C17.9881 6.39173 17.983 6.39347 17.9785 6.39621C17.8769 6.43582 17.5622 6.56464 17.0838 6.76297C16.4962 7.01597 15.6511 7.3606 14.6471 7.79908C13.6431 8.23756 12.4757 8.75085 11.2289 9.31617C10.8446 9.49213 10.448 9.6681 10.0489 9.84916L10.1737 10.1044Z" fill="black"/>
</g>
<path d="M11.6857 22.2803C11.6886 22.2779 11.6919 22.2761 11.6955 22.2752C11.7027 22.272 11.7094 22.2678 11.7154 22.2627C11.7575 22.2431 11.7997 22.2207 11.8394 22.1984L15.8253 19.9106C16.4904 19.5281 17.0429 18.977 17.4272 18.3129C17.8114 17.6487 18.0138 16.895 18.0139 16.1278V6.38208L18.0115 6.38451H18.0091C18.0064 6.38451 18.004 6.38697 17.9991 6.38941C17.9942 6.39184 17.9967 6.39184 17.994 6.39184C17.9888 6.39244 17.9837 6.39418 17.9792 6.39691V6.39934L6.04393 11.9841C5.46252 12.2563 4.95552 12.6651 4.56609 13.1755C4.17666 13.6859 3.91635 14.2828 3.80729 14.9155C3.69824 15.5482 3.74368 16.1978 3.93976 16.8091C4.13584 17.4204 4.47675 17.9753 4.93345 18.4264L6.66369 20.1341C6.67113 20.1407 6.67772 20.1481 6.68339 20.1563L6.68418 20.1581L6.68604 20.1587L6.68847 20.1614L8.2848 21.7378C8.72408 22.172 9.28826 22.4578 9.89817 22.5549C10.5081 22.6524 11.1332 22.5563 11.6857 22.2803Z" fill="url(#paint1_linear_173_244)"/>
<g style="mix-blend-mode:multiply" opacity="0.3">
<path d="M11.6955 22.2746C11.7451 22.2498 11.7922 22.225 11.8394 22.1977L15.8253 19.9099C16.4904 19.5274 17.0429 18.9763 17.4272 18.3122C17.8114 17.648 18.0138 16.8945 18.014 16.1271V9.35828C18.014 9.35828 17.9918 9.61127 17.9668 10.0524C17.9418 10.4935 17.9004 11.1209 17.8727 11.8767C17.8404 12.6329 17.8132 13.5147 17.7959 14.4596C17.7884 14.9306 17.776 15.4189 17.7738 15.9147C17.7894 16.3921 17.7257 16.8685 17.5854 17.3251C17.3128 18.2259 16.7476 19.0102 15.9791 19.5535C15.8873 19.62 15.7932 19.6775 15.6989 19.737C15.5998 19.7964 15.4997 19.8559 15.4041 19.9155C15.2106 20.0345 15.0223 20.151 14.8363 20.265C14.4672 20.4881 14.1201 20.7061 13.8002 20.9095C13.1584 21.3079 12.6353 21.6605 12.2635 21.8985C12.0775 22.0175 11.9363 22.1199 11.8372 22.1836C11.7626 22.2303 11.7143 22.2628 11.6955 22.2746Z" fill="black"/>
</g>
<g style="mix-blend-mode:screen" opacity="0.4">
<path d="M17.9783 6.39645V6.39901C17.9841 6.39764 17.9894 6.39492 17.9939 6.39111C17.9883 6.39176 17.9831 6.39358 17.9783 6.39645Z" fill="white"/>
</g>
<g style="mix-blend-mode:screen" opacity="0.4">
<path d="M6.66372 20.1335C6.59178 20.0518 6.36379 19.8016 6.00921 19.4221C5.79119 19.1893 5.52602 18.9066 5.22101 18.581C5.14664 18.5018 5.05987 18.4123 4.99059 18.3331C4.91681 18.2415 4.83993 18.1474 4.75996 18.0507C4.68231 17.9547 4.6111 17.8535 4.5468 17.7481C4.47255 17.643 4.40865 17.5309 4.356 17.4135C4.09831 16.9097 3.95602 16.3548 3.93944 15.7892C3.92513 15.1622 4.06113 14.541 4.33608 13.9773C4.62945 13.38 5.07489 12.8704 5.62763 12.4999C5.92279 12.3143 6.2319 12.1518 6.55218 12.014C6.88176 11.8628 7.21398 11.7092 7.54356 11.5554C8.20294 11.2431 8.86232 10.9308 9.51174 10.6257C10.1612 10.3207 10.7982 10.0086 11.4153 9.71116C12.6473 9.11618 13.7925 8.5511 14.7691 8.05772C15.7481 7.56944 16.5562 7.14314 17.1264 6.85296C17.585 6.61257 17.885 6.45144 17.979 6.39941L6.04374 11.9841C5.46234 12.2564 4.95534 12.6651 4.56591 13.1755C4.17648 13.6859 3.91616 14.2828 3.80711 14.9155C3.69806 15.5482 3.7435 16.1978 3.93958 16.8091C4.13566 17.4205 4.47656 17.9754 4.93327 18.4266L6.66372 20.1335Z" fill="white"/>
</g>
<g style="mix-blend-mode:screen" opacity="0.2">
<path d="M11.1105 21.4523L11.1477 21.4151L11.2964 21.3631C11.3145 21.3555 11.332 21.3463 11.3486 21.3358L15.3328 19.0504C15.775 18.796 16.1534 18.4441 16.4395 18.0217L5.213 13.9711C4.90353 14.4578 4.74015 15.023 4.74221 15.5997C4.74245 15.9948 4.82124 16.3857 4.974 16.75C5.12676 17.1143 5.35043 17.4445 5.632 17.7216L7.09685 19.1666H7.1119L7.36224 19.427C7.37464 19.4417 7.39433 19.4591 7.41426 19.4815L8.98335 21.0309C9.25765 21.3018 9.60547 21.486 9.98362 21.561C10.3618 21.6358 10.7536 21.598 11.1105 21.4523Z" fill="white"/>
</g>
<g style="mix-blend-mode:multiply" opacity="0.3">
<path d="M17.8116 6.08643H17.8083C17.8083 6.08966 17.8116 6.08966 17.8148 6.09289L17.8116 6.08643Z" fill="black"/>
</g>
<g style="mix-blend-mode:multiply" opacity="0.3">
<path d="M9.31113 6.54746C9.25466 6.70398 9.21481 6.86602 9.19226 7.03089C9.19956 7.00344 9.21196 6.95143 9.23189 6.8797C9.28158 6.71605 9.34282 6.55613 9.41515 6.40116C9.58382 5.98724 9.83925 5.40512 10.1217 4.69682C10.4041 3.98851 10.7315 3.15738 11.0662 2.26491C11.1505 2.04202 11.2346 1.81625 11.3214 1.58583C11.3656 1.47516 11.4081 1.34789 11.4528 1.24629L11.5173 1.09999L11.604 0.963639C11.7947 0.699099 12.0679 0.505401 12.3806 0.412975C12.6934 0.320546 13.028 0.334627 13.3318 0.453001C13.4304 0.496129 13.5242 0.549313 13.6118 0.611704C13.6556 0.638504 13.6957 0.671032 13.7309 0.708431C13.7726 0.740669 13.8108 0.777169 13.8449 0.817331L13.9613 0.963639L14.0605 1.10242C14.1324 1.20159 14.2044 1.30318 14.2761 1.40234C14.4199 1.60155 14.5612 1.79898 14.6999 1.99244C15.1139 2.56794 15.5129 3.11023 15.8824 3.59851C16.0063 3.76961 16.1303 3.93319 16.2493 4.08945C16.7078 4.69925 17.1068 5.19749 17.3771 5.55031C17.6175 5.85776 17.7737 6.04612 17.8085 6.08818L15.9964 3.4781L14.1521 0.821979C13.9772 0.569981 13.7361 0.371087 13.4555 0.247168C13.1749 0.123247 12.8655 0.0790942 12.5614 0.119562C12.2573 0.16003 11.9703 0.283552 11.7318 0.476551C11.4934 0.669551 11.3127 0.924553 11.2098 1.21354L9.31113 6.54746Z" fill="black"/>
</g>
<g style="mix-blend-mode:multiply" opacity="0.3">
<path d="M9.18958 7.03088L9.18762 7.03863L9.18958 7.04643C9.19099 7.04132 9.19191 7.03613 9.19237 7.03088H9.18958Z" fill="black"/>
</g>
</g>
</g>
</g>
</g>
<defs>
<linearGradient id="paint0_linear_173_244" x1="-233.024" y1="354.436" x2="-226.369" y2="357.502" gradientUnits="userSpaceOnUse">
<stop stop-color="#FD356E"/>
<stop offset="0.238" stop-color="#FD356E"/>
<stop offset="0.44" stop-color="#FD356E"/>
<stop offset="0.629" stop-color="#FD356E"/>
<stop offset="0.81" stop-color="#FD356E"/>
<stop offset="0.983" stop-color="#FD356E"/>
<stop offset="1" stop-color="#FD356E"/>
</linearGradient>
<linearGradient id="paint1_linear_173_244" x1="-221.874" y1="362.303" x2="-214.419" y2="349.763" gradientUnits="userSpaceOnUse">
<stop stop-color="#FD356E"/>
<stop offset="0.238" stop-color="#FD356E"/>
<stop offset="0.44" stop-color="#FD356E"/>
<stop offset="0.629" stop-color="#FD356E"/>
<stop offset="0.81" stop-color="#FD356E"/>
<stop offset="0.983" stop-color="#FD356E"/>
<stop offset="1" stop-color="#FD356E"/>
</linearGradient>
<clipPath id="clip0_173_244">
<rect width="22.4898" height="22.4898" fill="white" transform="translate(0 0.102051)"/>
</clipPath>
<clipPath id="clip1_173_244">
<rect width="22.4898" height="22.4898" fill="white" transform="translate(0 0.102051)"/>
</clipPath>
<clipPath id="clip2_173_244">
<rect width="14.9932" height="22.4898" fill="white" transform="translate(3.74829 0.102051)"/>
</clipPath>
</defs>
</svg>
