<svg width="22" height="22" viewBox="0 0 22 22" fill="none" xmlns="http://www.w3.org/2000/svg">
<path d="M7.50033 1.66699V20.3337M13.3337 8.66699L15.667 11.0003L13.3337 13.3337M1.66699 4.00033C1.66699 3.38149 1.91282 2.78799 2.35041 2.35041C2.78799 1.91282 3.38149 1.66699 4.00033 1.66699H18.0003C18.6192 1.66699 19.2127 1.91282 19.6502 2.35041C20.0878 2.78799 20.3337 3.38149 20.3337 4.00033V18.0003C20.3337 18.6192 20.0878 19.2127 19.6502 19.6502C19.2127 20.0878 18.6192 20.3337 18.0003 20.3337H4.00033C3.38149 20.3337 2.78799 20.0878 2.35041 19.6502C1.91282 19.2127 1.66699 18.6192 1.66699 18.0003V4.00033Z" stroke="#A3A3A3" stroke-width="1.5" stroke-linecap="round" stroke-linejoin="round"/>
</svg>
